<svg id="Lager_1" xmlns="http://www.w3.org/2000/svg" viewBox="0 0 634.7 154.3"><style>.st0{fill:#7b1933}</style><path class="st0" d="M2.7 46.1h17.8v21.3h8.3l22.4-21.3h24.2L44 74.4 79 104H53.9L28.3 81.8h-7.8V104H2.7V46.1zm82.9 0h17.8v43h39.9V104H85.6V46.1zm130.9 0h27.3l20.1 37.3L284 46.1h27.3V104H294V62.4h-.2L270.5 104h-13.3l-23.3-41.6h-.2V104h-17.3V46.1zm132.4 0H372l31.8 57.9H384l-5.5-10.2h-36l-5.2 10.2h-19.8l31.4-57.9zm.3 35.2h22.7l-11.5-21.8-11.2 21.8zM397 46.1h67.7v14.4h-25V104H422V60.5h-25V46.1zm74.2 20.3c0-17 9.5-21 25.5-21h28.5c16 0 25.5 4 25.5 21v17.3c0 17-9.5 21-25.5 21h-28.5c-16 0-25.5-4-25.5-21V66.4zm18.2 11.8c0 8.4 1.8 11.6 10.2 11.6h22.7c8.4 0 10.2-3.2 10.2-11.6V72c0-7.2-1.8-11.6-11.1-11.6h-20.8c-9.4 0-11.1 4.4-11.1 11.6v6.2zm72-32.1H615c13.7 0 17.4 6.8 17.4 17.2V67c0 7.8-1.8 12.3-9.9 14.2v.2c5.3 1 9.7 3.3 9.7 12.8v9.8h-17.8v-7c0-6.1-1.8-8.1-7.3-8.1h-27.9v15h-17.8V46.1zm17.8 28.5h29.4c4.8 0 6.6-1.9 6.6-6.1v-1.9c0-5.1-2.6-6.1-8.2-6.1h-27.8v14.1zM154.5 38l20.3-34.3L197.3 38zm-11.2 8.1l31.3 105.5 32.6-105.5h-63.9zm19.3 14.8h25.5l-13 42.8-12.5-42.8z"/></svg>