<?xml version="1.0" encoding="utf-8"?>
<!-- Generator: Adobe Illustrator 19.2.0, SVG Export Plug-In . SVG Version: 6.00 Build 0)  -->
<svg version="1.1" id="Layer_1" xmlns="http://www.w3.org/2000/svg" xmlns:xlink="http://www.w3.org/1999/xlink" x="0px" y="0px"
	 viewBox="0 0 1000 1000" style="enable-background:new 0 0 1000 1000;" xml:space="preserve" preserveAspectRatio="none">
<style type="text/css">
	.st0{fill:#FFFFFF;}
</style>
<path id="XMLID_1_" class="st0" d="M0,48.6C0,32.4,0,16.2,0,0c333.6,0,667.2,0,1000.8,0c0,16.2,0,32.4,0,48.6c-1.1,1-2.3,2-3.4,2.9
	c-120.3,103-240.6,205.9-360.9,308.8c-44.3,37.9-88.6,75.7-132.9,113.6c-1,0.8-2,1.6-3.1,2.4c-1-0.8-1.8-1.5-2.7-2.3
	c-41.3-35.4-82.7-70.8-124-106.2c-91.3-78.1-182.6-156.2-273.9-234.3C67,105.4,34,77.2,1,49C0.8,48.7,0.4,48.7,0,48.6z"/>
</svg>
